<?xml version="1.0" encoding="UTF-8" standalone="no"?>
<svg
   height="48"
   width="48"
   version="1.1"
   id="svg4"
   sodipodi:docname="account_circle.svg"
   inkscape:version="1.2.1 (9c6d41e410, 2022-07-14)"
   xmlns:inkscape="http://www.inkscape.org/namespaces/inkscape"
   xmlns:sodipodi="http://sodipodi.sourceforge.net/DTD/sodipodi-0.dtd"
   xmlns="http://www.w3.org/2000/svg"
   xmlns:svg="http://www.w3.org/2000/svg">
  <defs
     id="defs8" />
  <sodipodi:namedview
     id="namedview6"
     pagecolor="#ffffff"
     bordercolor="#000000"
     borderopacity="0.25"
     inkscape:showpageshadow="2"
     inkscape:pageopacity="0.0"
     inkscape:pagecheckerboard="0"
     inkscape:deskcolor="#d1d1d1"
     showgrid="false"
     inkscape:zoom="21.395833"
     inkscape:cx="18.741967"
     inkscape:cy="24.093477"
     inkscape:window-width="3440"
     inkscape:window-height="1351"
     inkscape:window-x="-9"
     inkscape:window-y="-9"
     inkscape:window-maximized="1"
     inkscape:current-layer="svg4" />
  <path
     d="M11.1 35.25q3.15-2.2 6.25-3.375Q20.45 30.7 24 30.7q3.55 0 6.675 1.175t6.275 3.375q2.2-2.7 3.125-5.45Q41 27.05 41 24q0-7.25-4.875-12.125T24 7q-7.25 0-12.125 4.875T7 24q0 3.05.95 5.8t3.15 5.45ZM24 25.5q-2.9 0-4.875-1.975T17.15 18.65q0-2.9 1.975-4.875T24 11.8q2.9 0 4.875 1.975t1.975 4.875q0 2.9-1.975 4.875T24 25.5ZM24 44q-4.1 0-7.75-1.575-3.65-1.575-6.375-4.3-2.725-2.725-4.3-6.375Q4 28.1 4 24q0-4.15 1.575-7.775t4.3-6.35q2.725-2.725 6.375-4.3Q19.9 4 24 4q4.15 0 7.775 1.575t6.35 4.3q2.725 2.725 4.3 6.35Q44 19.85 44 24q0 4.1-1.575 7.75-1.575 3.65-4.3 6.375-2.725 2.725-6.35 4.3Q28.15 44 24 44Zm0-3q2.75 0 5.375-.8t5.175-2.8q-2.55-1.8-5.2-2.75-2.65-.95-5.35-.95-2.7 0-5.35.95-2.65.95-5.2 2.75 2.55 2 5.175 2.8Q21.25 41 24 41Zm0-18.5q1.7 0 2.775-1.075t1.075-2.775q0-1.7-1.075-2.775T24 14.8q-1.7 0-2.775 1.075T20.15 18.65q0 1.7 1.075 2.775T24 22.5Zm0-3.85Zm0 18.7Z"
     id="path2"
     style="fill:#002984;fill-opacity:1" />
</svg>
